<svg xmlns="http://www.w3.org/2000/svg" xmlns:xlink="http://www.w3.org/1999/xlink" viewBox="0 0 274.07 321.16"><defs><style>.cls-1,.cls-16,.cls-17,.cls-19{fill:none;}.cls-2{fill:#01539c;}.cls-3{fill:#fff;}.cls-4{fill:#fde6c7;}.cls-5{fill:#1d1d1b;}.cls-6{fill:#807f80;}.cls-7{fill:#f6a723;}.cls-8{fill:#e52d2c;}.cls-9{fill:#f19918;}.cls-10{fill:#fde8cd;}.cls-11{fill:#fccd00;}.cls-12{fill:#c3c9c6;}.cls-13{fill:#d79648;}.cls-14{fill:#07a443;}.cls-15{fill:#453624;}.cls-16,.cls-17{stroke:#fff;}.cls-16,.cls-17,.cls-19{stroke-miterlimit:10;}.cls-16{stroke-width:0.35px;}.cls-17{stroke-width:0.32px;}.cls-18{clip-path:url(#clip-path);}.cls-19{stroke:#010101;stroke-width:0.04px;}.cls-20{clip-path:url(#clip-path-3);}</style><clipPath id="clip-path"><rect class="cls-1" x="183.73" y="145.21" width="16.13" height="23.46"/></clipPath><clipPath id="clip-path-3"><rect class="cls-1" x="190.54" y="138.82" width="2.8" height="6.46"/></clipPath></defs><g id="Capa_2" data-name="Capa 2"><g id="Capa_1-2" data-name="Capa 1"><path class="cls-2" d="M138.31,321.16,0,268.44V0H274.07V268.52L138.31,321.16"/><path class="cls-3" d="M241.87,38.47,20.63,140.1V190L241.91,93q0-27.27,0-54.54"/><path class="cls-3" d="M253.37,139.11,45.31,38.56Q45.15,62.41,45,86.25L254.08,190q-.36-25.43-.71-50.85"/><path class="cls-4" d="M193.23,143.59c-.27,0-1-.9-1.39-1.44-1-1.32-2.33-3-3.89-2.75-.84.11-1.25.69-1.82,1.48a14.84,14.84,0,0,1-1.92,2.24,15.68,15.68,0,0,1-2.94,2.1c0-1.28,0-2.82.07-4.7a13.3,13.3,0,0,0,2.89-1.8c.38-.3.68-.57.93-.81a3.19,3.19,0,0,1,1.53-1,6,6,0,0,1,6.5,3.88,3.59,3.59,0,0,1,0,2.76"/><path class="cls-5" d="M191.84,142.15c.43.54,1.12,1.44,1.39,1.44a3.64,3.64,0,0,0,0-2.76,6,6,0,0,0-6.5-3.88,3.19,3.19,0,0,0-1.53,1,10.78,10.78,0,0,1-.93.81,13.3,13.3,0,0,1-2.89,1.8c0-.32,0-.63,0-1a12.47,12.47,0,0,0,2.32-1.49c.37-.29.65-.56.9-.79a4,4,0,0,1,1.9-1.15c2.89-.74,6.55,1.42,7.53,4.45.43,1.35.51,3.42-.47,3.82-.79.31-1.49-.58-2.38-1.71s-2-2.58-3.1-2.43c-.46.05-.7.37-1.24,1.12a14.91,14.91,0,0,1-2,2.38,18.34,18.34,0,0,1-3.54,2.48c0-.32,0-.66,0-1a15.85,15.85,0,0,0,2.93-2.1,14.28,14.28,0,0,0,1.92-2.24c.57-.79,1-1.37,1.83-1.48,1.55-.21,2.85,1.43,3.88,2.75"/><path class="cls-5" d="M180.47,140.88c0-.3,0-.61,0-.94q.45-.18.87-.39c0,.34,0,.65,0,1-.28.12-.57.25-.87.36"/><path class="cls-4" d="M181.34,140.51c0,1.89-.05,3.43-.07,4.71l-.81.48-.06,0c0-1.3,0-2.88.08-4.86.29-.11.57-.24.86-.37"/><path class="cls-5" d="M167.18,222.4h14.91v70.25c-.32,0-.64.09-1,.15V222.75h-14Z"/><path class="cls-5" d="M180.89,146.44c-.18.09-.34.2-.5.29,0-.31,0-.64,0-1a.1.1,0,0,1,.05,0l.81-.48c0,.36,0,.69,0,1l-.36.22"/><polygon class="cls-5" points="180.79 198.98 180.79 199.75 180.6 199.91 180.03 199.08 180.14 198.98 180.79 198.98"/><path class="cls-5" d="M179.84,214.77h.95v1H164.52a.5.5,0,0,0,.46-.53v-.51Z"/><path class="cls-6" d="M180.52,136.28c0,.65,0,1,0,2.34v.15c0,.4,0,.8,0,1.18a47.66,47.66,0,0,1-5.32,1.65,10.8,10.8,0,0,1-3,.51,35.78,35.78,0,0,0-5.7.69c-.75.13-2,.34-2.45-.19-.21-.25-.21-.61-.16-1.39a14.72,14.72,0,0,0,0-1.86,16.64,16.64,0,0,0-.45-3c-.87-3.49-3.83-5.68-5.1-6.6a14.66,14.66,0,0,0-1.27-.84,1.23,1.23,0,0,1,0-.27l0-.34a18.21,18.21,0,0,0-.25-3.49,13.84,13.84,0,0,0-1.07-3.39,3.63,3.63,0,0,1-.47-2.17c.36-2.34,3.23-3.71,3.8-4a9.52,9.52,0,0,1,6.52,0c3,.86,7.4,3.11,11.16,8.93a24.24,24.24,0,0,1,3.77,12.07"/><path class="cls-5" d="M180,199.08l.57.83.19-.16v15h-.95V200H166.78c.05-.34.1-.68.14-1h13.23Z"/><path class="cls-5" d="M178.21,191.08a3.51,3.51,0,0,1-1.68.41,3,3,0,0,1-1.23-.23,2,2,0,0,1-.36-.18Z"/><path class="cls-7" d="M174.74,294.82V231.43a1.44,1.44,0,1,0-2.86,0V295a15.78,15.78,0,0,0-4.71,1.38V222.75h14V292.8a26.46,26.46,0,0,0-5.62,1.78l-.54.23h-.23"/><path class="cls-4" d="M172.18,143a11.68,11.68,0,0,0,3.22-.53,50.89,50.89,0,0,0,5.07-1.55c0,2-.05,3.57-.06,4.86a42.27,42.27,0,0,1-6,2.88c-1.42.58-3,1.23-5.44,2.44-.65.32-1.22.61-1.73.88-2,1-3.08,1.6-4.41,1.62a33.39,33.39,0,0,0-2-10.08l2.2-.74a1.42,1.42,0,0,0,.26.44c.8.9,2.32.62,3.22.47a39.31,39.31,0,0,1,5.62-.69"/><path class="cls-5" d="M174.74,231.43v63.39a27.32,27.32,0,0,0-2.86.22V231.43a1.44,1.44,0,1,1,2.86,0"/><path class="cls-5" d="M171.69,204.71a2.76,2.76,0,1,1-2.53,2.75,2.64,2.64,0,0,1,2.53-2.75"/><path class="cls-6" d="M169.83,182.44a1.46,1.46,0,0,1-.84,0c-2-.52-3.29-3.76-3.63-6.55a11.93,11.93,0,0,1,.36-4.56,7.29,7.29,0,0,0-.06-4.75,5.72,5.72,0,0,0-1.07-1.87,6.85,6.85,0,0,1-1.12-1.87,13.3,13.3,0,0,1-.77-6.82l0-.32c.05-.44.07-.87.08-1.3,1.56,0,2.8-.66,4.82-1.71l1.72-.87c2.39-1.2,4-1.84,5.38-2.41a43.35,43.35,0,0,0,5.66-2.7c0,1.59,0,2.66,0,3.49,0,1.38,0,1.9-.06,2.91a48.5,48.5,0,0,1-1.29,9.34,75.52,75.52,0,0,0-1.67,10.38c-.16,1.66-.36,3-.52,4.13-.36,2.59-.61,4.3,0,6.44a24.12,24.12,0,0,0,1,2.86c.63,1.58,1.14,2.83.58,3.58a2.58,2.58,0,0,1-2.78.62c-1.23-.5-1.66-2.19-2.08-3.83-.47-1.81-1-3.69-2.57-4.19a1.87,1.87,0,0,0-.58-.09,2.23,2.23,0,0,0-.57.08"/><path class="cls-5" d="M169.63,183.19v.16a2.26,2.26,0,0,1-.86-.07l-.27-.09Z"/><path class="cls-7" d="M166.92,199a42,42,0,0,0-.49-14.75h2.26v7.89h14.42v-7.89h6.2v7.11L180.15,199Z"/><path class="cls-5" d="M168.69,192.12v-7.89h-2.26c-.09-.34-.18-.7-.29-1h2.36l.27.09a2.25,2.25,0,0,0,.86.07v7.73h5.31a2.47,2.47,0,0,0,.36.19,3.2,3.2,0,0,0,1.23.23,3.58,3.58,0,0,0,1.68-.42h3.94v-7.89h8.12v8.67l-9.48,7.89V199h-.64l9.16-7.64v-7.11H183.1v7.89Z"/><path class="cls-5" d="M167.18,222.75v73.67a5.8,5.8,0,0,0-.66.33,1.49,1.49,0,0,0-.3.18V222.75Z"/><rect class="cls-5" x="166.23" y="222.39" width="0.95" height="0.35"/><rect class="cls-5" x="166.23" y="222.23" width="0.95" height="0.16"/><path class="cls-5" d="M166.92,199c0,.36-.1.7-.14,1h-.87c.06-.34.1-.68.15-1Z"/><path class="cls-7" d="M165.54,184.23h.89a42,42,0,0,1,.49,14.75h-.86a40.86,40.86,0,0,0-.52-14.75"/><path class="cls-7" d="M165,202.92h1.31l.06-.34c.14-.74.29-1.61.43-2.56h13.06v14.75H165Zm9.22,4.55a2.53,2.53,0,1,0-2.52,2.75,2.65,2.65,0,0,0,2.52-2.75"/><path class="cls-7" d="M166.22,222.75v74.18a2.32,2.32,0,0,0-.75.86h-14V243.64l-.1-.14c-.55-.78-5.53-7.62-13.64-7.1-6.75.41-10.81,5.54-11.9,7.1l-.09.14v54.15H122c-3.43-.07-6.86-.1-10.28-.2V222.75Zm-7.33,60.34V232.32a1.43,1.43,0,1,0-2.85,0v50.77a1.43,1.43,0,1,0,2.85,0m-36.95,0V232.32a1.43,1.43,0,1,0-2.85,0v50.77a1.43,1.43,0,1,0,2.85,0"/><rect class="cls-5" x="111.75" y="222.39" width="54.47" height="0.35"/><path class="cls-5" d="M166.06,199c-.05.36-.09.7-.14,1H165v-.53a.49.49,0,0,0-.47-.51Z"/><path class="cls-7" d="M165,200h.92c-.11.74-.22,1.43-.33,2H165Z"/><path class="cls-5" d="M165.29,183.32a.5.5,0,0,0,0-.13h.9c.1.35.19.69.28,1h-.89c-.07-.31-.16-.61-.25-.91"/><path class="cls-7" d="M165,202.92v-.86h.59c.11-.61.22-1.3.33-2h.87c-.13.95-.29,1.82-.43,2.56l-.06.34Z"/><path class="cls-5" d="M165,214.77v.51a.48.48,0,1,1-1,0v-.51Z"/><rect class="cls-5" x="164.04" y="202.92" width="0.95" height="11.84"/><rect class="cls-5" x="164.04" y="202.06" width="0.95" height="0.86"/><rect class="cls-5" x="164.04" y="200.01" width="0.95" height="2.05"/><path class="cls-5" d="M165,199.49V200h-1v-.53a.48.48,0,1,1,1,0"/><path class="cls-5" d="M112.86,199h51.65a.49.49,0,0,0-.48.51V200h-50.7v-.53a.5.5,0,0,0-.47-.51"/><path class="cls-5" d="M164.51,215.81H112.86a.5.5,0,0,0,.47-.53v-.51H164v.51a.51.51,0,0,0,.48.53"/><path class="cls-7" d="M123.68,204.71a2.76,2.76,0,1,0,2.53,2.75,2.65,2.65,0,0,0-2.53-2.75m20.35,0a2.76,2.76,0,1,0,2.51,2.75,2.65,2.65,0,0,0-2.51-2.75m10.15,0a2.76,2.76,0,1,0,2.53,2.75,2.65,2.65,0,0,0-2.53-2.75m-40.85-1.79H164v11.85h-50.7Zm20.52,1.79a2.76,2.76,0,1,0,2.52,2.75,2.65,2.65,0,0,0-2.52-2.75"/><rect class="cls-7" x="113.33" y="202.06" width="50.7" height="0.86"/><rect class="cls-7" x="113.33" y="200.01" width="50.7" height="2.05"/><path class="cls-5" d="M169,151.06c2.42-1.21,4-1.86,5.45-2.44a42.24,42.24,0,0,0,6-2.88c0,.35,0,.68,0,1a43.42,43.42,0,0,1-5.65,2.68c-1.42.58-3,1.22-5.39,2.42-.64.31-1.21.61-1.72.87-2,1.05-3.25,1.68-4.82,1.72,0-.29,0-.58,0-.86,1.33,0,2.41-.58,4.4-1.62l1.73-.88"/><path class="cls-5" d="M162.18,135.33l.48.58-.19.17a5.78,5.78,0,0,0-.29-.75"/><path class="cls-5" d="M165.36,175.91c.34,2.78,1.62,6,3.63,6.54a1.56,1.56,0,0,0,.84,0,2.23,2.23,0,0,1,.57-.08,1.87,1.87,0,0,1,.58.09c1.62.5,2.1,2.38,2.57,4.19.42,1.63.85,3.32,2.08,3.84a2.61,2.61,0,0,0,2.78-.63c.56-.75.05-2-.58-3.57a25,25,0,0,1-1-2.87c-.59-2.14-.35-3.85,0-6.44.16-1.16.36-2.47.52-4.13A75.52,75.52,0,0,1,179,162.46a48.38,48.38,0,0,0,1.29-9.34c0-1,0-1.53.06-2.92,0-.81,0-1.88,0-3.48.16-.08.33-.18.49-.28a3.59,3.59,0,0,1,.38-.21c0,1.87,0,3.08,0,4,0,1.37,0,1.93-.07,3a47.94,47.94,0,0,1-1.3,9.48,74.7,74.7,0,0,0-1.65,10.28c-.16,1.67-.36,3-.53,4.16-.36,2.57-.58,4.12,0,6.1a23.42,23.42,0,0,0,1,2.77c.71,1.75,1.32,3.26.48,4.4a2.68,2.68,0,0,1-.88.72h-3.28c-1.35-.78-1.79-2.53-2.22-4.22s-.83-3.23-2-3.58a1.08,1.08,0,0,0-.71,0l-.39.07v-.16H168.5c-2.57-.91-3.71-4.9-4-7.18a12.64,12.64,0,0,1,.37-4.86,6.54,6.54,0,0,0,0-4.26,5.1,5.1,0,0,0-1-1.63,7.93,7.93,0,0,1-1.24-2.08,14,14,0,0,1-.84-7.23l0-.32c0-.43.07-.84.08-1.25h.15q.3,0,.6,0h.11a11.48,11.48,0,0,1-.08,1.3l0,.33a13.27,13.27,0,0,0,.77,6.81,6.85,6.85,0,0,0,1.12,1.87,5.72,5.72,0,0,1,1.07,1.87,7.26,7.26,0,0,1,.06,4.74,12,12,0,0,0-.36,4.58"/><path class="cls-4" d="M162.47,136.08c.05.14.09.29.13.45a15.67,15.67,0,0,1,.42,2.87,15.5,15.5,0,0,1,0,1.76,3.66,3.66,0,0,0,.1,1.59l-2.2.73c-.36-1.1-.74-2.19-1.12-3.27l-.34-1a20.13,20.13,0,0,1,3.05-3.14"/><path class="cls-5" d="M162.47,136.08a20.13,20.13,0,0,0-3.05,3.14l-.33-.95a21.55,21.55,0,0,1,3-3l.07.08a7.71,7.71,0,0,1,.29.75"/><path class="cls-8" d="M157.82,130.41a12.74,12.74,0,0,1,4.36,4.92l-.07-.09a22.17,22.17,0,0,0-3,3,33.45,33.45,0,0,1-2-8.36l.72.5"/><path class="cls-5" d="M162.18,153.54a4.8,4.8,0,0,0,.65,0c0,.29,0,.57,0,.85h-.11l-.6,0H162c0-.3,0-.58,0-.86l.22,0"/><path class="cls-4" d="M159,140.5c1.47,4.17,3,8.48,3,13a6.85,6.85,0,0,1-3.62-1.21l-.49-.35-.76-.59c-.35-.27-.65-.52-.87-.7l-.35-.29-.81-.66a20.82,20.82,0,0,1,2.12-7,20.2,20.2,0,0,1,1.62-2.67c0,.15.11.3.15.45"/><path class="cls-5" d="M151.46,297.78h14a1.54,1.54,0,0,0-.15.36,31.06,31.06,0,0,1-3.84.64,3.42,3.42,0,0,1-.46,0h-9.56Z"/><path class="cls-4" d="M162,153.52c0-4.54-1.55-8.85-3-13-.06-.15-.11-.31-.16-.45.2-.29.41-.56.62-.83.11.33.23.67.35,1,.37,1.08.75,2.17,1.11,3.27a33.39,33.39,0,0,1,2,10.08,4.8,4.8,0,0,1-.65,0l-.22,0"/><path class="cls-5" d="M159.09,138.27l.33.95c-.22.27-.42.54-.62.83-.11-.33-.23-.65-.34-1,.2-.28.41-.54.63-.8"/><path class="cls-5" d="M158.89,232.32v50.77a1.43,1.43,0,1,1-2.85,0V232.32a1.43,1.43,0,1,1,2.85,0"/><path class="cls-8" d="M158.47,139.07a41.78,41.78,0,0,1-2.06-7.51c.21-.56.43-1.11.66-1.67l0,0a33.45,33.45,0,0,0,2,8.36,9.05,9.05,0,0,0-.62.8"/><path class="cls-5" d="M163,141.16a13.77,13.77,0,0,0,0-1.76,16.16,16.16,0,0,0-.41-2.87c0-.16-.08-.31-.13-.45l.2-.17-.48-.57a12.8,12.8,0,0,0-4.37-4.93l-.72-.5a.13.13,0,0,1,0-.06s0,0,0-.06h0c0-.31,0-.61,0-.92a14.79,14.79,0,0,1,1.27.85c1.27.92,4.23,3.11,5.1,6.6a16.53,16.53,0,0,1,.45,3,17.27,17.27,0,0,1,0,1.86c-.06.78-.07,1.14.15,1.39.47.53,1.7.31,2.45.19a38.59,38.59,0,0,1,5.7-.69,10.55,10.55,0,0,0,3-.52,42.6,42.6,0,0,0,5.32-1.65c0,.33,0,.64,0,.94a52.3,52.3,0,0,1-5.06,1.55,11.74,11.74,0,0,1-3.23.53,39.24,39.24,0,0,0-5.61.69c-.92.15-2.44.43-3.23-.48a1.45,1.45,0,0,1-.26-.43,3.76,3.76,0,0,1-.1-1.58"/><path class="cls-5" d="M157.12,129.79l0,.07s0-.06,0-.07Z"/><path class="cls-5" d="M157.09,129.85a.2.2,0,0,0,0,.07s0,0,0,0l0-.05"/><path class="cls-5" d="M157.09,129.78s0,.05,0,.07l0,.05-.64-.41Z"/><path class="cls-5" d="M157.07,129.9c-.24.54-.45,1.1-.66,1.66-.1-.63-.15-1.24-.19-1.86l.11-.25.1,0,.64.41"/><path class="cls-5" d="M156.43,129.49l-.11,0c0,.09-.07.16-.1.25,0-.11,0-.23,0-.33l.22.12"/><path class="cls-5" d="M156.2,128.39c.29.15.58.31.86.48,0,.31,0,.61,0,.92l-.66-.3a2.53,2.53,0,0,1-.23-.12c0-.26,0-.5,0-.75Z"/><path class="cls-5" d="M154.19,204.71a2.76,2.76,0,1,1-2.52,2.75,2.64,2.64,0,0,1,2.52-2.75"/><path class="cls-8" d="M154.44,144.06a37.22,37.22,0,0,1,.66-7.89,33,33,0,0,1,1.31-4.61,42.34,42.34,0,0,0,2.05,7.51,21,21,0,0,0-2.05,3.26,22.27,22.27,0,0,0-1.83,5.11c-.09-1.13-.13-2.25-.14-3.38"/><path class="cls-5" d="M158.73,114.48a10.09,10.09,0,0,1,7.09,0c3.16.9,7.75,3.24,11.65,9.29a25,25,0,0,1,3.91,12.49c0,.68,0,1.08,0,2.39v.16c0,.25,0,.51,0,.76q-.42.21-.87.39c0-.37,0-.77,0-1.17v-.16c0-1.28,0-1.68,0-2.33a24.28,24.28,0,0,0-3.77-12.07c-3.76-5.81-8.15-8.07-11.16-8.92a9.34,9.34,0,0,0-6.52,0c-.57.25-3.44,1.6-3.8,4a3.62,3.62,0,0,0,.47,2.17,13.84,13.84,0,0,1,1.07,3.39,18.12,18.12,0,0,1,.25,3.48v.36a2.09,2.09,0,0,0,0,.25c-.28-.17-.57-.33-.86-.48v-.13a16.28,16.28,0,0,0-.24-3.33,13.34,13.34,0,0,0-1-3.19,4.49,4.49,0,0,1-.53-2.66,4.27,4.27,0,0,1,.5-1.43,8.55,8.55,0,0,1,3.81-3.17"/><path class="cls-5" d="M155.06,149.71l0,.23-.85-.09c0-.14,0-.27,0-.4l.43,0,.4.31"/><path class="cls-5" d="M157.18,142.72a20.84,20.84,0,0,0-2.12,7l-.4-.31h.11c-.08-.65-.14-1.3-.19-1.95a21.58,21.58,0,0,1,1.83-5.1,20.59,20.59,0,0,1,2.05-3.27c.11.33.23.65.34,1a20.2,20.2,0,0,0-1.62,2.67"/><path class="cls-5" d="M154.66,149.4l-.43,0c0-.12,0-.24.05-.37l.38.32"/><path class="cls-5" d="M154.58,147.44c0,.65.11,1.3.19,1.94l-.11,0-.38-.31c.08-.55.18-1.11.3-1.65"/><path class="cls-5" d="M154.28,149.09l-.43-.35c-.16-1.54-.25-3.11-.27-4.68a37.78,37.78,0,0,1,.68-8.06,33,33,0,0,1,2-6.3c0,.62.1,1.23.19,1.86a31.48,31.48,0,0,0-1.31,4.62,36.4,36.4,0,0,0-.66,7.88c0,1.13.06,2.25.14,3.38q-.18.83-.3,1.65"/><path class="cls-5" d="M154.28,149.09c0,.11,0,.24-.05.36l-.31,0c0-.24,0-.49-.07-.74l.43.35"/><path class="cls-5" d="M156.21,129.37a15.73,15.73,0,0,0-4-1.53c0-.2.05-.41.08-.61l0-.24a16.08,16.08,0,0,1,3.83,1.4v.22c0,.26,0,.51,0,.76"/><path class="cls-8" d="M154.26,136a37.78,37.78,0,0,0-.68,8.06c0,1.57.11,3.14.27,4.68L151.7,147l0,0a81.38,81.38,0,0,1,.58-19.2,15.73,15.73,0,0,1,3.95,1.53c0,.11,0,.22,0,.33a33,33,0,0,0-2,6.3"/><path class="cls-5" d="M153.25,167.2a1.24,1.24,0,0,1,.22-.18c-.08.06-.14.13-.22.18"/><path class="cls-5" d="M158.34,152.31a6.87,6.87,0,0,0,3.62,1.21c0,.28,0,.57,0,.86a7.72,7.72,0,0,1-4.13-1.39l-.47-.35-.79-.59-.89-.71-.39-.34c-.37-.31-1.54-1.25-3.49-2.8,0-.4-.09-.77-.12-1.16l0,0,2.15,1.73c0,.25,0,.5.07.74l.31,0c0,.13,0,.26,0,.4l.85.09,0-.23c.38.32.66.54.81.68l.35.29.87.69.77.58Z"/><path class="cls-5" d="M152.34,127.22c0,.21-.06.41-.09.62l-.26-.07.19-.83.2,0Z"/><path class="cls-5" d="M151.67,147c0,.39.07.77.12,1.15l-.64-.5Z"/><polygon class="cls-5" points="150.5 297.78 151.45 297.78 151.45 298.82 147.73 298.82 147.73 297.78 150.5 297.78"/><rect class="cls-9" x="140.38" y="252.69" width="6.44" height="9.31"/><path class="cls-5" d="M146.76,124.66a2.38,2.38,0,0,0-.31-.17l-.46-.21.22-.12.72.58,0,0-.14-.1"/><rect class="cls-9" x="140.33" y="290.2" width="6.44" height="7.58"/><rect class="cls-9" x="140.33" y="277.19" width="6.44" height="9.31"/><rect class="cls-9" x="140.33" y="265.38" width="6.44" height="9.31"/><polygon class="cls-9" points="140.36 241.38 146.3 249 140.36 249 140.36 241.38"/><path class="cls-5" d="M144,204.71a2.76,2.76,0,1,1-2.53,2.75,2.64,2.64,0,0,1,2.53-2.75"/><path class="cls-10" d="M144.38,112.12c.41,1.7,0,3.18-.73,6.13a10.84,10.84,0,0,1-.49,1.56,8.22,8.22,0,0,1-.45.86,4.19,4.19,0,0,0-.53,1.26,3.49,3.49,0,0,0,0,1.33,8.1,8.1,0,0,1-2.81.84c-.23,0-.48,0-.72,0a8.38,8.38,0,0,1-4.5-1.24,8.88,8.88,0,0,0-.31-2.38,7.17,7.17,0,0,0-.74-1.81,8.62,8.62,0,0,1-.58-1.24,10.38,10.38,0,0,1-.57-4.69,7.92,7.92,0,0,1,2.14-5,5.8,5.8,0,0,1,3.68-1.6,5.42,5.42,0,0,1,4.46,1.63c.18.23.52.75.66,1l.05.08a12.49,12.49,0,0,1,1.48,3.29"/><path class="cls-5" d="M143.2,122.65l.55.57a7.4,7.4,0,0,0-.64-.52.26.26,0,0,1,.09,0"/><path class="cls-11" d="M133.24,123.09l-2.19,1.71a17.44,17.44,0,1,1,15.16-.64L144,122.35a2.45,2.45,0,0,0-.37.11,1.93,1.93,0,0,0-.38.18h0a1.94,1.94,0,0,1-.24.15,4,4,0,0,1,.07-.69,3.18,3.18,0,0,1,.44-1c.15-.26.31-.55.49-.94a11.12,11.12,0,0,0,.53-1.7c.8-3.09,1.19-4.64.73-6.54a13.13,13.13,0,0,0-1.6-3.57l0-.08c-.14-.22-.52-.76-.7-1a6.35,6.35,0,0,0-5.19-2,6.61,6.61,0,0,0-4.22,1.82,8.78,8.78,0,0,0-2.4,5.56,11.21,11.21,0,0,0,.61,5.08,11.89,11.89,0,0,0,.63,1.35,6.74,6.74,0,0,1,.68,1.62,8.69,8.69,0,0,1,.26,2.35"/><path class="cls-5" d="M143,122.79a4.22,4.22,0,0,0,.07.61l-.84.16a1.54,1.54,0,0,1,0-.3,5.58,5.58,0,0,0,.81-.47"/><path class="cls-5" d="M149.51,169.54a21,21,0,0,0,3.74-2.34A27.71,27.71,0,0,1,141.93,173a71.66,71.66,0,0,0,7.58-3.49"/><path class="cls-5" d="M146.83,252.69h-6.45V262h6.45Zm.95,10.35h-8.34V251.65h8.34Z"/><path class="cls-5" d="M140.36,249h5.94l-5.94-7.62Zm8,1h-9V238.56Z"/><polygon class="cls-5" points="147.73 289.16 147.73 297.78 146.78 297.78 146.78 290.2 140.33 290.2 140.33 297.78 139.38 297.78 139.38 289.16 147.73 289.16"/><path class="cls-5" d="M146.77,277.19h-6.44v9.31h6.44Zm1,10.35h-8.35V276.15h8.35Z"/><path class="cls-5" d="M146.77,265.38h-6.44v9.32h6.44Zm1,10.35h-8.35V264.34h8.35Z"/><path class="cls-5" d="M142.21,298.82l-2.83-.18v-.86h8.35v1Z"/><path class="cls-12" d="M144.61,124.07a18.77,18.77,0,0,0,2.45,1.87l4.38,1.51a80.28,80.28,0,0,0,3.05,37.43,27,27,0,0,1-14.65,7.72c-.26,0-.54,0-.8.06V125l.39,0a9,9,0,0,0,4.32-1.73c.47.42.77.78.86.85"/><path class="cls-5" d="M151.67,147l-.52.65.64.5c.2,2,.51,4.07.88,6.09a79.59,79.59,0,0,0,2.72,10.57c0,.15-.06.29-.09.44-.31.32-.63.63-1,1h0c-.28.27-.57.52-.86.78a1.92,1.92,0,0,0-.22.18,20.43,20.43,0,0,1-3.74,2.34,71.66,71.66,0,0,1-7.58,3.49c-.81.2-1.63.36-2.45.49l-.11,0H139v-.88l.8-.06a27,27,0,0,0,14.65-7.72,82.56,82.56,0,0,1-2.68-10.45,80.84,80.84,0,0,1-.37-27l-4.39-1.5a22.65,22.65,0,0,1-2.44-1.88c-.09-.08-.39-.42-.86-.85l-.55-.58a1.93,1.93,0,0,1,.38-.18,2.15,2.15,0,0,1,.37-.11l2.26,1.81-.22.12.45.21a1.2,1.2,0,0,1,.32.16l.14.11,0,0,.6.49,4.86,1.63,0,.13-.2,0-.18.84.26.06a80.87,80.87,0,0,0-.58,19.2"/><polygon class="cls-5" points="137.81 298.52 137.81 297.78 139.38 297.78 139.38 298.63 137.81 298.53 137.81 298.52"/><polygon class="cls-5" points="139.37 173.54 139.04 173.59 139.04 173.54 139.37 173.54"/><polygon class="cls-5" points="139.04 173.59 139.04 173.6 139.02 173.59 139.04 173.59"/><polygon class="cls-5" points="139.04 173.54 139.04 173.59 139.02 173.59 138.98 173.59 138.98 173.54 139.04 173.54"/><path class="cls-5" d="M139,173.54c0-.29,0-.58,0-.87H139v.88Z"/><polygon class="cls-5" points="139.02 173.59 138.98 173.6 138.98 173.59 139.02 173.59"/><path class="cls-5" d="M138.39,125l.61,0-.37,0Z"/><path class="cls-5" d="M139,173.54v.05l-.4-.07a2.68,2.68,0,0,0,.4,0"/><path class="cls-12" d="M138.39,125h-.22q0,23.79,0,47.6a27.13,27.13,0,0,1-14.65-7.72,79.7,79.7,0,0,0,2.68-10.45,81.1,81.1,0,0,0,.38-27l4.26-1.44,2.58-2,.61.07c0-.08,0-.16,0-.24a9.43,9.43,0,0,0,4.34,1.14"/><rect class="cls-9" x="130.47" y="252.69" width="6.44" height="9.31"/><polygon class="cls-9" points="136.91 241.38 136.91 249 130.97 249 136.91 241.38"/><rect class="cls-9" x="130.42" y="290.2" width="6.43" height="7.58"/><rect class="cls-9" x="130.42" y="277.19" width="6.43" height="9.31"/><path class="cls-13" d="M139.44,263.05h8.34V251.66h-8.34Zm8.29,1.29h-8.35v11.39h8.35Zm0,11.81h-8.35v11.4h8.35Zm-9.86-37.59-9,11.48h9ZM126.68,244c1.15-1.62,4.94-6.18,11.09-6.56,7.23-.45,11.88,5.39,12.73,6.56v53.79h-2.77v-8.62h-8.35v8.62h-1.57v-8.62h-8.35v8.62h-2.78Zm11.19,7.67h-8.35v11.39h8.35Zm-.06,24.49h-8.35v11.4h8.35Zm0-11.81h-8.35v11.39h8.35ZM139.4,250h9l-9-11.48Z"/><rect class="cls-9" x="130.42" y="265.38" width="6.43" height="9.31"/><path class="cls-5" d="M133.85,204.71a2.76,2.76,0,1,1-2.52,2.75,2.64,2.64,0,0,1,2.52-2.75"/><path class="cls-5" d="M134.1,122.9a8.54,8.54,0,0,0,4.51,1.24c.23,0,.48,0,.73,0a8,8,0,0,0,2.79-.84c0,.11,0,.2.05.31l.84-.18a3.07,3.07,0,0,1-.07-.6,1.4,1.4,0,0,0,.24-.15h0l-.08,0c.15.11.37.29.63.52a8.88,8.88,0,0,1-4.32,1.73l-.39,0h-.65a9.43,9.43,0,0,1-4.34-1.14,6.31,6.31,0,0,0,0-1"/><path class="cls-5" d="M134.1,122.9a6.31,6.31,0,0,1,0,1l-.23-.13-.39.3-.25,0a7.07,7.07,0,0,0,.06-.91l.53-.41.25.17.08.05"/><path class="cls-5" d="M133.82,123.73l.23.13c0,.07,0,.16,0,.23l-.62-.06Z"/><path class="cls-5" d="M133.24,123.09a8.69,8.69,0,0,0-.26-2.35,6.74,6.74,0,0,0-.68-1.62,11.89,11.89,0,0,1-.63-1.35,11.21,11.21,0,0,1-.61-5.08,8.78,8.78,0,0,1,2.4-5.56,6.61,6.61,0,0,1,4.22-1.82,6.35,6.35,0,0,1,5.19,2c.18.25.56.79.7,1l0,.08a13.13,13.13,0,0,1,1.6,3.57c.46,1.9.07,3.45-.73,6.54a11.12,11.12,0,0,1-.53,1.7c-.18.39-.34.68-.49.94a3.18,3.18,0,0,0-.44,1,4,4,0,0,0-.07.69,6.19,6.19,0,0,1-.81.48,3.6,3.6,0,0,1,0-1.35,4.24,4.24,0,0,1,.53-1.25,8.22,8.22,0,0,0,.45-.86,10.84,10.84,0,0,0,.49-1.56c.75-3,1.14-4.43.73-6.13a12.82,12.82,0,0,0-1.48-3.3l-.05-.07c-.14-.21-.48-.73-.66-1a5.48,5.48,0,0,0-4.46-1.62,5.75,5.75,0,0,0-3.68,1.6,7.92,7.92,0,0,0-2.14,5,10.38,10.38,0,0,0,.57,4.69,8.62,8.62,0,0,0,.58,1.24,7.17,7.17,0,0,1,.74,1.81,8.85,8.85,0,0,1,.3,2.37l-.08,0-.25-.16Z"/><path class="cls-5" d="M131.43,125a.24.24,0,0,0,0,.08,4.69,4.69,0,0,0-.74.57c-.19-.09-.39-.17-.58-.27l.37-.12.55-.42a3.08,3.08,0,0,0,.38.16"/><path class="cls-5" d="M128.91,250l9-11.49V250Zm8-1v-7.62L131,249Z"/><path class="cls-5" d="M129.52,251.65h8.34V263h-8.34Zm7.39,1h-6.44V262h6.44Z"/><polygon class="cls-5" points="137.81 289.16 137.81 297.78 136.85 297.78 136.85 290.2 130.41 290.2 130.41 297.78 129.46 297.78 129.46 289.16 137.81 289.16"/><path class="cls-5" d="M136.85,277.19h-6.43v9.31h6.43Zm-7.38-1h8.34v11.39h-8.34Z"/><path class="cls-5" d="M136.85,265.38h-6.43v9.32h6.43Zm1,10.35h-8.34V264.34h8.34Z"/><path class="cls-5" d="M130.42,297.78h7.39v.74h0c-2.79-.2-5.57-.39-8.34-.52v-.23Z"/><path class="cls-5" d="M125.82,243.5c1.09-1.56,5.15-6.69,11.9-7.1,8.11-.52,13.09,6.32,13.64,7.1l.09.14v54.15h-.95V244c-.85-1.17-5.5-7-12.73-6.56-6.15.37-9.94,4.95-11.09,6.56v53.8h-1V243.64Z"/><path class="cls-5" d="M125.73,297.78h3.74V298l-.38,0q-1.68-.08-3.36-.12Z"/><path class="cls-5" d="M126.26,148c0-.39.07-.77.11-1.16l.52.64-.63.52"/><path class="cls-8" d="M124.21,148.57c.15-1.55.24-3.11.25-4.67a37.53,37.53,0,0,0-.66-8.06,33,33,0,0,0-2.08-6.55l-.07,0a15,15,0,0,1,4.11-1.63,80.79,80.79,0,0,1,.61,19.19l0,0-2.14,1.72"/><path class="cls-5" d="M125.87,126.78l.19.83c-.1,0-.19,0-.3.08,0-.16,0-.31-.07-.46l-.06-.37Z"/><path class="cls-5" d="M125.73,297.78v.09l-3.64-.09Z"/><path class="cls-5" d="M123.68,204.71a2.76,2.76,0,1,1-2.52,2.75,2.65,2.65,0,0,1,2.52-2.75"/><path class="cls-8" d="M123.31,172q1.36-1.68.77-4.94a29.76,29.76,0,0,0,7.69,5.15c2.79,1.3,4.78,2.23,7.66,2.18,2.34-.05,5-1.4,10.45-4.1a20.3,20.3,0,0,0,4.62-3c.25-.22.51-.46.76-.7a5,5,0,0,0,1.39,2,4.9,4.9,0,0,0,1.65.93,4.26,4.26,0,0,1,1.22.62,5,5,0,0,1,1.56,2.9l0,.16a23.1,23.1,0,0,0,2.13,5.28,27.86,27.86,0,0,1,2,4.7H157v7.89H144.5v-7.89H132.32v7.16H119.16v-7.16h-3.79c.36-1.52.68-2.77,1-3.72.68-2.34,1.36-3.91,2.81-5a7.23,7.23,0,0,1,2-1.06,4.31,4.31,0,0,0,2.14-1.36"/><path class="cls-5" d="M123.77,148.92c.14-.11.29-.22.43-.35,0,.25,0,.5-.07.75l-.31,0c0-.11,0-.24,0-.36"/><path class="cls-5" d="M123.82,149.28c0,.14,0,.27.05.41l-.85.09a2.08,2.08,0,0,0,0-.23l.38-.32Z"/><path class="cls-5" d="M123.77,148.92c0,.12,0,.25,0,.36l-.45-.05a3.35,3.35,0,0,0,.4-.31"/><path class="cls-5" d="M123.28,149.22c.07-.64.14-1.3.19-1.94q.18.81.3,1.65c-.15.11-.27.22-.4.3Z"/><path class="cls-5" d="M131.78,170.63a27,27,0,0,0,6.4,2V125h.45l.37,0h0v47.68H139c0,.29,0,.58,0,.87a2.68,2.68,0,0,1-.41,0h-.05a24.82,24.82,0,0,1-3.21-.71h-.07c-1-.37-2-.84-3.18-1.39a29.37,29.37,0,0,1-8.44-6l-.9-.9a80.19,80.19,0,0,0,2.64-10.27c.38-2.08.68-4.15.89-6.24l.64-.52-.53-.64a80.79,80.79,0,0,0-.61-19.19l.3-.08-.19-.83,4.26-1.44.58.27a3.92,3.92,0,0,1,.74-.57.19.19,0,0,1,0-.08l-.38-.16,2.19-1.71a7,7,0,0,1-.06.91l.24,0-2.57,2-4.26,1.44a81.1,81.1,0,0,1-.38,27,81.69,81.69,0,0,1-2.67,10.45,27,27,0,0,0,8.24,5.75"/><path class="cls-5" d="M132.08,171.41c1.15.54,2.18,1,3.17,1.38a26.11,26.11,0,0,1-3.83-1.38,27.88,27.88,0,0,1-7.26-4.74c-.59-.53-1.06-1-1.4-1.37l-.13-.43v0c0-.11.07-.2.1-.3l.9.9a29.41,29.41,0,0,0,8.45,6"/><path class="cls-5" d="M122.46,164.27l.27.28c0,.1-.06.2-.09.3v0Z"/><path class="cls-5" d="M122.64,164.87l.11.43h0l-.18-.19Z"/><path class="cls-5" d="M123.61,143.9A37.13,37.13,0,0,0,123,136a31.76,31.76,0,0,0-2-6.28c.23-.15.45-.28.68-.41l.07,0a32.77,32.77,0,0,1,2.07,6.55,37,37,0,0,1,.67,8.06c0,1.56-.09,3.13-.25,4.67l-.44.35c-.08-.55-.18-1.1-.3-1.64.09-1.13.13-2.26.14-3.38"/><path class="cls-5" d="M121.94,232.32v50.77a1.43,1.43,0,1,1-2.85,0V232.32a1.43,1.43,0,1,1,2.85,0"/><path class="cls-6" d="M121.61,120.82a3.59,3.59,0,0,1-.47,2.18,14.91,14.91,0,0,0-1.06,3.38,16,16,0,0,0-.25,3.1l-.11.07c-1.27.93-4.23,3.11-5.1,6.6a17.64,17.64,0,0,0-.45,3,16.7,16.7,0,0,0,0,1.85c0,.79.06,1.15-.16,1.4-.47.53-1.7.31-2.46.18a36.8,36.8,0,0,0-5.69-.69,10.49,10.49,0,0,1-3-.51,31.77,31.77,0,0,1-6.52-2.21c0-.56,0-.89,0-1.33a25.29,25.29,0,0,1,1.24-6.77,2.26,2.26,0,0,0,.93-.46c.59-.51.59-1.07.53-3a20.82,20.82,0,0,1,1.07-1.83,24.79,24.79,0,0,1,3.93-4.76,7.09,7.09,0,0,0,.42.65c1.55,2.1,3.27,3.1,4.82,2.8a4,4,0,0,0,2.85-2.83,5.13,5.13,0,0,0-.45-3.57,7.31,7.31,0,0,0-.59-1.16,1,1,0,0,1,.18-.06,13,13,0,0,1,3.57-.61,7.42,7.42,0,0,1,2.94.59c.57.25,3.44,1.61,3.8,3.95"/><path class="cls-5" d="M123.28,149.22h.09l-.38.32a20.61,20.61,0,0,0-2.12-7,19.41,19.41,0,0,0-2-3.19c.11-.34.23-.66.33-1a21.71,21.71,0,0,1,2.45,3.79,21.94,21.94,0,0,1,1.83,5.11c0,.64-.12,1.3-.19,1.94"/><path class="cls-5" d="M120.93,129.63l.72-.31-.67.4,0-.09"/><path class="cls-8" d="M123.61,143.9c0,1.12,0,2.25-.14,3.38a21.94,21.94,0,0,0-1.83-5.11,22.3,22.3,0,0,0-2.45-3.79,26.34,26.34,0,0,0,1.5-8.16v-.31l.28-.18a31.76,31.76,0,0,1,2,6.28,37.13,37.13,0,0,1,.66,7.89"/><path class="cls-5" d="M120.69,129.85v-.95a16.48,16.48,0,0,1,5.19-2.13h0l-.25.08.07.36c0,.16,0,.31.06.47a15.14,15.14,0,0,0-4.11,1.63l-.71.31a.25.25,0,0,0,0,.09l-.29.2Z"/><path class="cls-5" d="M146.21,124.16a17.38,17.38,0,1,0-15.16.65l-.54.41-.38.13a18.37,18.37,0,0,1-7.69-6.92,18,18,0,0,1-2.73-9.56c0-.12,0-.25,0-.37a18.28,18.28,0,0,1,36.55.37,18,18,0,0,1-2.06,8.39,18.34,18.34,0,0,1-7.28,7.48l-.72-.58"/><path class="cls-8" d="M119.83,130.54c.14-.11.28-.22.4-.3l.46-.33v.31a26.34,26.34,0,0,1-1.5,8.16c-.22-.26-.43-.53-.66-.78a25.17,25.17,0,0,0,1.3-7.06"/><path class="cls-5" d="M119.84,129.87c0-.13,0-.26,0-.4.28-.2.57-.4.86-.57v1c-.15.1-.31.21-.46.33s-.26.19-.4.3c0-.11,0-.22,0-.32Z"/><path class="cls-5" d="M118.53,137.6c.23.25.45.52.66.79-.1.32-.21.65-.32,1-.2-.28-.42-.54-.64-.8.1-.33.21-.65.3-1"/><path class="cls-5" d="M118.53,137.6c-.09.32-.2.64-.3,1a20.11,20.11,0,0,0-2.65-2.65,4.85,4.85,0,0,1,.29-.75l.07-.09a22,22,0,0,1,2.59,2.52"/><path class="cls-5" d="M143.54,184.23H133.26v7.17h-15v-7.17h-3.08c.08-.36.16-.72.24-1h3.79v7.17h13.16v-7.17H144.5v7.89H157v-7.89h8.26a.65.65,0,0,1,0,.13c.09.3.18.6.25.91h-7.6v7.89h-14.4Z"/><path class="cls-4" d="M116.6,143.31a42.59,42.59,0,0,0-2.44,9.95,16.11,16.11,0,0,1-3.34-1.49c-.52-.26-1.09-.56-1.73-.87-2.42-1.21-4-1.86-5.45-2.45a41.93,41.93,0,0,1-6-2.91c-.44-.25-.82-.48-1.15-.69,0-1.29,0-2.78-.08-4.54v-.13a35.23,35.23,0,0,0,6.28,2.09,11.3,11.3,0,0,0,3.23.53,36.32,36.32,0,0,1,5.6.69c.92.15,2.44.42,3.23-.47a1.12,1.12,0,0,0,.19-.29Z"/><path class="cls-5" d="M159.52,170.15a4.44,4.44,0,0,0-1.22-.63,5,5,0,0,1-1.66-.92,5.06,5.06,0,0,1-1.38-2c-.25.24-.5.48-.77.7a20.33,20.33,0,0,1-4.6,3.05c-5.41,2.69-8.12,4-10.46,4.1-2.88,0-4.87-.89-7.65-2.19a29.87,29.87,0,0,1-7.7-5.14c.4,2.16.14,3.81-.76,4.94a4.48,4.48,0,0,1-2.16,1.35,7.32,7.32,0,0,0-2,1.06c-1.45,1.13-2.13,2.71-2.81,5-.27.95-.6,2.2-1,3.72h-.89c.39-1.62.74-2.95,1-3.95.72-2.52,1.48-4.22,3.11-5.49a7.79,7.79,0,0,1,2.25-1.18,3.75,3.75,0,0,0,1.79-1.09c.91-1.13,1-3,.27-5.61l-.16-.57c.34.36.81.84,1.4,1.37a29.55,29.55,0,0,0,4.19,3.13,28.89,28.89,0,0,0,3.07,1.61,26.11,26.11,0,0,0,3.83,1.38.08.08,0,0,0,.07,0,10.93,10.93,0,0,0,3.21.72h.05l.4.07H139l.33-.06h0a8.46,8.46,0,0,0,2.52-.51,27.71,27.71,0,0,0,11.32-5.83,1.81,1.81,0,0,0,.21-.18c.16-.12.31-.26.47-.4a4.75,4.75,0,0,0,.4-.38h0c.28-.25.54-.51.79-.78l.17-.17.36-.39.2.75a4.51,4.51,0,0,0,1.35,2.3,4.46,4.46,0,0,0,1.39.78,4.39,4.39,0,0,1,1.44.74,5.62,5.62,0,0,1,1.87,3.37l0,.16a23.83,23.83,0,0,0,2.06,5.09,27,27,0,0,1,2.1,5,.56.56,0,0,0,0,.12h-.9a27.17,27.17,0,0,0-2-4.7,23.29,23.29,0,0,1-2.13-5.28l0-.15a5,5,0,0,0-1.56-2.91"/><path class="cls-4" d="M115.58,135.92a19.44,19.44,0,0,1,2.65,2.64c-.35,1.08-.73,2.15-1.11,3.25-.17.5-.35,1-.52,1.5l-1.7-.58a3.18,3.18,0,0,0,.17-1.74,13.72,13.72,0,0,1,0-1.76,15.09,15.09,0,0,1,.41-2.86c0-.16.08-.31.13-.45"/><path class="cls-4" d="M117.12,141.81c.39-1.1.77-2.17,1.11-3.25.22.27.44.54.63.81-.29.89-.61,1.81-.92,2.73A45.65,45.65,0,0,0,115,153.39a3.59,3.59,0,0,1-.86-.14,41.94,41.94,0,0,1,2.44-9.93c.17-.51.35-1,.52-1.51"/><path class="cls-8" d="M115.93,135.08l-.06.09a11.92,11.92,0,0,1,4-4.63,25.24,25.24,0,0,1-1.3,7.06,21.36,21.36,0,0,0-2.6-2.52"/><path class="cls-4" d="M115.87,153.37a4.87,4.87,0,0,1-.85,0,46.84,46.84,0,0,1,2.91-11.3c.32-.92.64-1.82.94-2.72a21.64,21.64,0,0,1,2,3.19,21.29,21.29,0,0,1,2.11,7l-.81.66-.35.3-.87.7c-.28.22-.51.4-.76.58l-.49.36a7.07,7.07,0,0,1-3.84,1.22"/><path class="cls-5" d="M115.39,135.75l.47-.58a6.09,6.09,0,0,0-.28.75l-.19-.17"/><path class="cls-5" d="M114.48,183.19h.89c-.08.32-.16.68-.24,1h-.88c.08-.36.17-.72.23-1"/><path class="cls-5" d="M124.21,148.57l2.14-1.72,0,0c0,.38-.07.77-.11,1.16-2,1.55-3.12,2.49-3.49,2.8l-.39.33-.89.72-.79.59-.47.35a7.82,7.82,0,0,1-4.28,1.4q-.3,0-.6,0l-.39,0a7.92,7.92,0,0,1,.05-.85,5.13,5.13,0,0,0,.87,0,7.05,7.05,0,0,0,3.84-1.23l.47-.36c.25-.18.5-.36.77-.57l.88-.7.34-.3.81-.66a1.81,1.81,0,0,1,0,.23l.85-.09c0-.14,0-.27-.05-.4l.31,0,.08-.75"/><path class="cls-5" d="M115,153.39c0,.29,0,.56-.07.85a4.85,4.85,0,0,1-.85-.13c0-.29,0-.58.06-.86a4.06,4.06,0,0,0,.86.14"/><path class="cls-5" d="M110.39,183.19h4.1c-.07.32-.16.68-.24,1h-4.86a5.22,5.22,0,0,0,1-1"/><path class="cls-7" d="M109.39,184.23h4.86c-.83,3.67-1.82,8.64-2.83,14.75H98.17l-6.39-4.69V184.23h3.34v6.63h2.27a1.92,1.92,0,0,0,.4,1.1,3.45,3.45,0,0,0,3.8.91,3.53,3.53,0,0,0,1.83-2H109v-6.38a3,3,0,0,0,.37-.25"/><path class="cls-5" d="M113.33,214.77v.51a.5.5,0,0,1-.47.53.5.5,0,0,1-.48-.53v-.51Z"/><rect class="cls-5" x="112.38" y="202.92" width="0.95" height="11.84"/><rect class="cls-5" x="112.38" y="202.06" width="0.95" height="0.86"/><rect class="cls-5" x="112.38" y="200.01" width="0.95" height="2.05"/><path class="cls-5" d="M113.33,199.49V200h-1v-.53a.49.49,0,0,1,.48-.51.5.5,0,0,1,.47.51"/><path class="cls-7" d="M112.3,199c1-6.14,2-11.11,2.83-14.75h3.08v7.17h15v-7.17h10.28v7.89h14.4v-7.89h7.61a41.07,41.07,0,0,1,.51,14.75H112.3Z"/><path class="cls-5" d="M112.13,200c.05-.36.11-.7.17-1h.56a.5.5,0,0,0-.48.52V200Z"/><path class="cls-7" d="M112.38,202.92v11.85H98.5V200h12.76c-.13.78-.26,1.59-.38,2.41l-.08.49Zm-3.84,4.55a2.53,2.53,0,1,0-2.52,2.75,2.65,2.65,0,0,0,2.52-2.75"/><path class="cls-7" d="M112.38,200v2h-.58q.17-1,.33-2Z"/><path class="cls-7" d="M115.13,184.23c-.84,3.64-1.83,8.62-2.83,14.75h-.87c1-6.11,2-11.08,2.82-14.75Z"/><path class="cls-5" d="M111.26,200c0-.36.11-.7.16-1h.88c-.06.34-.12.68-.17,1Z"/><path class="cls-7" d="M110.88,202.43c.13-.83.25-1.63.38-2.41h.87c-.11.67-.22,1.35-.33,2h.58v.85H110.8Z"/><path class="cls-5" d="M111.75,222.75v74.84l-1,0V222.75Z"/><rect class="cls-5" x="110.8" y="222.39" width="0.95" height="0.35"/><rect class="cls-5" x="110.8" y="222.23" width="0.95" height="0.16"/><path class="cls-14" d="M110.91,118.44a4.33,4.33,0,0,1,.43,3,3.2,3.2,0,0,1-2.19,2.22c-1.2.23-2.65-.66-4-2.46a4.74,4.74,0,0,1-.46-.72,17.82,17.82,0,0,1,5.54-3.26,6.22,6.22,0,0,1,.64,1.22"/><path class="cls-5" d="M111.06,116.07a10.08,10.08,0,0,1,7.09,0,9.3,9.3,0,0,1,3.25,2.37,4.63,4.63,0,0,1,1.06,2.24,4.33,4.33,0,0,1-.53,2.65,13.6,13.6,0,0,0-1,3.2,15.13,15.13,0,0,0-.23,2.36c-.29.17-.58.37-.87.58a16.13,16.13,0,0,1,.26-3.1,15.44,15.44,0,0,1,1.06-3.38,3.6,3.6,0,0,0,.47-2.18c-.36-2.34-3.23-3.7-3.8-3.95a7.28,7.28,0,0,0-2.94-.59,12.81,12.81,0,0,0-3.58.61l-.18.06a4.92,4.92,0,0,0-.54-.73l.49-.15"/><path class="cls-5" d="M111.17,172.94a7.32,7.32,0,0,1,0-4.74,6.1,6.1,0,0,1,1.07-1.87,7.16,7.16,0,0,0,1.13-1.87,13.46,13.46,0,0,0,.77-6.83l0-.32a20.19,20.19,0,0,1-.06-3.2,4.82,4.82,0,0,0,.86.13,17.6,17.6,0,0,0,.05,3l0,.32a14,14,0,0,1-.83,7.24,7.83,7.83,0,0,1-1.24,2.07,5,5,0,0,0-.94,1.63,6.51,6.51,0,0,0,0,4.25,12.91,12.91,0,0,1-1.62,10.45h-1.11a10.66,10.66,0,0,0,2.26-5.69,11.93,11.93,0,0,0-.36-4.56"/><path class="cls-7" d="M110.8,222.75v74.81c-1.33,0-2.66-.1-4-.18a2,2,0,0,0,0-.23V231.43a1.43,1.43,0,1,0-2.85,0v64.2a1.73,1.73,0,0,0-.66-.23,29.19,29.19,0,0,1-5.84-1.61v-71Z"/><polygon class="cls-5" points="182.09 221.71 182.09 222.39 167.18 222.39 167.18 222.23 166.22 222.23 166.22 222.39 111.75 222.39 111.75 222.23 110.8 222.23 110.8 222.39 96.54 222.39 96.54 221.71 182.09 221.71"/><path class="cls-5" d="M110.57,116.22a6.64,6.64,0,0,1,.55.73,8.26,8.26,0,0,0-.84.28c-.18-.24-.35-.46-.56-.71.29-.12.58-.21.85-.3"/><path class="cls-5" d="M109,184.23h.37a3,3,0,0,1-.37.25Z"/><path class="cls-5" d="M109.27,183.19a3.05,3.05,0,0,1-1.2.8v-.8Z"/><path class="cls-5" d="M109,190.86h-5.6a6.72,6.72,0,0,0,.37-1h4.28v-4.93h0a3.08,3.08,0,0,0,.91-.4Z"/><path class="cls-5" d="M108.07,184.89V184a3,3,0,0,0,1.2-.8h1.12a5.81,5.81,0,0,1-1,1H109v.26a3.05,3.05,0,0,1-.91.39h0"/><path class="cls-6" d="M107.06,184.05a2,2,0,0,0-1.16,0c-1.62.5-2.1,2.39-2.57,4.2-.13.53-.27,1.07-.44,1.57H98.36a18.24,18.24,0,0,1,.7-1.94,25.48,25.48,0,0,0,1-2.86c.58-2.15.34-3.86,0-6.45-.17-1.16-.35-2.48-.51-4.13a79,79,0,0,0-1.66-10.37,47,47,0,0,1-1.3-9.34c0-1,0-1.54-.06-2.91,0-1.17,0-2.88-.07-6l.7.42a43,43,0,0,0,6.16,3c1.4.58,3,1.22,5.38,2.41l1.72.88a15.34,15.34,0,0,0,3.68,1.57,19.2,19.2,0,0,0,.06,3.21l0,.31a13.42,13.42,0,0,1-.77,6.82,7,7,0,0,1-1.13,1.88,6.18,6.18,0,0,0-1.07,1.87,7.32,7.32,0,0,0,0,4.74,11.93,11.93,0,0,1,.36,4.56,10.62,10.62,0,0,1-2.26,5.69h-1.2v.8l-.18.06a1.45,1.45,0,0,1-.83,0"/><path class="cls-5" d="M106,204.71a2.76,2.76,0,1,1-2.52,2.75,2.64,2.64,0,0,1,2.52-2.75"/><path class="cls-5" d="M105.13,297.28a2.58,2.58,0,0,0-1.15-1.65v-64.2a1.44,1.44,0,1,1,2.86,0v65.72a1.79,1.79,0,0,1,0,.23l-1.69-.1"/><path class="cls-14" d="M104.39,119.65a18.51,18.51,0,0,1,5.32-3.13,8.24,8.24,0,0,1,.56.71,17.76,17.76,0,0,0-5.54,3.25,3.73,3.73,0,0,1-.34-.83"/><path class="cls-5" d="M111.71,118.11a5.18,5.18,0,0,1,.45,3.57,4,4,0,0,1-2.85,2.83c-1.55.3-3.27-.7-4.82-2.8a7.09,7.09,0,0,1-.42-.65l.67-.58a4.62,4.62,0,0,0,.45.72c1.31,1.8,2.75,2.69,4,2.46a3.19,3.19,0,0,0,2.19-2.23,4.36,4.36,0,0,0-.43-3,6,6,0,0,0-.64-1.2,6.48,6.48,0,0,1,.85-.28,7.31,7.31,0,0,1,.59,1.16"/><path class="cls-5" d="M104.39,119.65a3.73,3.73,0,0,0,.34.83c-.22.19-.45.38-.66.59a5.82,5.82,0,0,1-.38-.82c.23-.22.47-.42.7-.6"/><path class="cls-5" d="M105.9,184.06a2,2,0,0,1,1.16,0,1.45,1.45,0,0,0,.83,0l.18-.06v.9a2.23,2.23,0,0,1-1.2,0,1.18,1.18,0,0,0-.72,0c-1.16.35-1.55,1.93-2,3.58-.12.46-.23.92-.37,1.36h-.9c.16-.5.3-1,.43-1.57.47-1.81,1-3.69,2.57-4.19"/><path class="cls-5" d="M102.47,190.86a5.79,5.79,0,0,0,.42-1h.91a8,8,0,0,1-.38,1Z"/><path class="cls-5" d="M98.36,189.82h4.53a5.79,5.79,0,0,1-.42,1H98.25a2.82,2.82,0,0,1,.11-1"/><path class="cls-7" d="M98.26,190.86h4.21a2.49,2.49,0,0,1-1.21,1.21,2.56,2.56,0,0,1-2.78-.62,1.15,1.15,0,0,1-.22-.59"/><path class="cls-5" d="M99,126c.13-.22.26-.43.4-.64a24.79,24.79,0,0,1,4.27-5.09,5.74,5.74,0,0,0,.38.81,24.79,24.79,0,0,0-3.93,4.76,20.82,20.82,0,0,0-1.07,1.83c0-.08,0-.17,0-.25,0-.41,0-.87,0-1.42"/><path class="cls-5" d="M99.07,127.65c.06,1.95.06,2.5-.53,3a2.38,2.38,0,0,1-.94.47c.12-.38.26-.76.41-1.13v0a.71.71,0,0,0,.2-.5c.26-.63.54-1.23.86-1.83"/><path class="cls-5" d="M97.55,214.77v-15l.22.15.52-.86-.12-.09h13.25c0,.34-.11.68-.16,1H98.5v14.75Z"/><path class="cls-5" d="M97.55,215.81v-1h14.83v.51a.5.5,0,0,0,.48.53Z"/><path class="cls-5" d="M98.21,127.46A16.3,16.3,0,0,1,99,126c0,.55,0,1,0,1.41,0,.09,0,.18,0,.27-.32.59-.6,1.2-.86,1.81a15.7,15.7,0,0,0,0-2"/><path class="cls-7" d="M98.48,191.44a2.53,2.53,0,0,0,2.78.63,2.49,2.49,0,0,0,1.21-1.21h1a3.53,3.53,0,0,1-1.83,2,3.46,3.46,0,0,1-1.24.24A3.2,3.2,0,0,1,97.8,192a1.88,1.88,0,0,1-.4-1.1h.86a1.09,1.09,0,0,0,.22.58"/><polygon class="cls-5" points="98.29 199.06 97.77 199.93 97.55 199.78 97.55 198.98 98.17 198.98 98.29 199.06"/><path class="cls-5" d="M97.4,190.86a3.15,3.15,0,0,1,.08-1h.88a2.6,2.6,0,0,0-.1,1Z"/><path class="cls-5" d="M98.21,127.46a15.7,15.7,0,0,1,0,2c-.07.18-.14.34-.19.51v0h0a1.53,1.53,0,0,1-1,.33,22.36,22.36,0,0,1,1.25-2.88"/><polygon class="cls-5" points="91.78 194.3 98.17 198.98 97.55 198.98 97.55 199.78 91.78 195.55 91.78 194.3"/><path class="cls-5" d="M102.65,142.27a36.14,36.14,0,0,1-6.28-2.08c0-.4,0-.72,0-1a31.77,31.77,0,0,0,6.52,2.21,10.49,10.49,0,0,0,3,.51,36.8,36.8,0,0,1,5.69.69c.76.13,2,.35,2.46-.18.22-.25.21-.61.16-1.4a14.55,14.55,0,0,1,0-1.85,17.64,17.64,0,0,1,.45-3c.87-3.49,3.83-5.67,5.1-6.6l.11-.07v1.06a12,12,0,0,0-4,4.63l-.48.58.2.17a3.22,3.22,0,0,0-.14.44,14,14,0,0,0-.38,4.64,3.05,3.05,0,0,1-.17,1.73,1.38,1.38,0,0,1-.19.28c-.79.9-2.32.63-3.22.48a35,35,0,0,0-5.62-.69,12.09,12.09,0,0,1-3.22-.53"/><path class="cls-5" d="M102.18,116.31a6.53,6.53,0,0,0-3.49-2.78c-.71-.21-.91-.1-.91-.1s.08.88.27,1.53.36,1.22.52,2a27.8,27.8,0,0,1,.34,3.56c.07,1.24.07,1.81.07,2.61,0,.63,0,1.41,0,2.78v0c-.29.48-.56,1-.81,1.48v0c0-.42,0-.91,0-1.47,0-1.38,0-2.17,0-2.8,0-.82,0-1.35-.08-2.56a26.75,26.75,0,0,0-.32-3.45,19.53,19.53,0,0,0-.51-2c-.33-1.15-.56-1.9,0-2.39.33-.3.91-.34,1.73-.09a7.26,7.26,0,0,1,4,3.13,8.26,8.26,0,0,1,1.3,3.07c.06.25.11.49.19.74-.23.19-.47.38-.7.6a7.15,7.15,0,0,1-.33-1.14,7.46,7.46,0,0,0-1.18-2.8"/><path class="cls-5" d="M103.32,149.25a43,43,0,0,1-6.16-3l-.7-.41c0-.32,0-.66,0-1l1.15.69a42.47,42.47,0,0,0,6,2.91c1.42.58,3,1.23,5.45,2.45l1.72.88a16.1,16.1,0,0,0,3.35,1.47c0,.29,0,.57-.06.86a15.34,15.34,0,0,1-3.68-1.57l-1.72-.88c-2.39-1.19-4-1.83-5.38-2.41"/><path class="cls-7" d="M97.55,215.81h84.58a1.67,1.67,0,0,1,1.6,1.73v2.08a1.68,1.68,0,0,1-1.6,1.74H95a1.68,1.68,0,0,1-1.59-1.74v-2.08A1.67,1.67,0,0,1,95,215.81Z"/><path class="cls-5" d="M96.54,222.4H110.8v.35H97.49v71l-.95-.35Z"/><path class="cls-5" d="M97,130.34a1.59,1.59,0,0,0,1-.32l0,0c-.14.37-.28.75-.39,1.13a2.92,2.92,0,0,1-.94.07c.09-.28.18-.57.29-.85Z"/><path class="cls-5" d="M98.69,174.53a77,77,0,0,0-1.64-10.28,48.7,48.7,0,0,1-1.32-9.48c0-1,0-1.58-.06-2.93s0-3.09-.08-6.51c.26.17.55.35.87.53,0,3.08.06,4.79.07,6,0,1.37,0,1.9.06,2.91a47,47,0,0,0,1.3,9.34,79,79,0,0,1,1.66,10.37c.16,1.65.35,3,.51,4.13.37,2.59.61,4.3,0,6.45a25.48,25.48,0,0,1-1,2.86,18.24,18.24,0,0,0-.7,1.94h-.88a15.11,15.11,0,0,1,.79-2.27,25,25,0,0,0,1-2.75c.55-2,.33-3.53,0-6.1-.16-1.18-.35-2.5-.52-4.17"/><path class="cls-5" d="M95.58,144.3c.25.18.54.36.86.55,0,.35,0,.7,0,1-.32-.18-.61-.36-.87-.53,0-.33,0-.67,0-1"/><path class="cls-4" d="M96.37,140.31c0,1.76.06,3.25.07,4.54-.32-.19-.61-.37-.86-.55,0-1.13,0-2.43-.07-3.91,0-.26,0-.48,0-.67.28.16.58.32.88.47Z"/><path class="cls-5" d="M97.6,131.12a25.28,25.28,0,0,0-1.23,6.77c0,.44,0,.77,0,1.33-.3-.16-.58-.33-.87-.51,0-.31,0-.56,0-.87a26.69,26.69,0,0,1,1.17-6.64,2.57,2.57,0,0,0,.92-.08"/><path class="cls-5" d="M96.35,139.22c0,.25,0,.57,0,1a8.24,8.24,0,0,1-.88-.48c0-.43,0-.74,0-1l.87.51"/><path class="cls-5" d="M95.12,184.23H91.78v-1h4.29v6.63h1.41a3.15,3.15,0,0,0-.08,1H95.12Z"/><path class="cls-4" d="M95.51,140.39c0,1.48,0,2.78.07,3.91A11.25,11.25,0,0,1,93.84,143a13.83,13.83,0,0,1-1.92-2.25l-.14-.19v-3.6a4.2,4.2,0,0,1,1.11.83c.25.23.55.5.93.81a13.23,13.23,0,0,0,1.67,1.16c0,.19,0,.42,0,.67"/><path class="cls-5" d="M182.13,214.77a2.67,2.67,0,0,1,2.55,2.77v2.08a2.67,2.67,0,0,1-2.55,2.77h0v-.68H96.54v.68H95a2.66,2.66,0,0,1-2.54-2.77v-2.08A2.66,2.66,0,0,1,95,214.77h2.56v1H95a1.67,1.67,0,0,0-1.59,1.73v2.08A1.68,1.68,0,0,0,95,221.36h87.14a1.68,1.68,0,0,0,1.6-1.74v-2.08a1.67,1.67,0,0,0-1.6-1.73h-1.34v-1Z"/><path class="cls-5" d="M95.58,144.3c0,.36,0,.7,0,1a13.59,13.59,0,0,1-2.34-1.74A13.28,13.28,0,0,1,91.78,142v-1.44l.14.19A13.83,13.83,0,0,0,93.84,143a10.65,10.65,0,0,0,1.74,1.34"/><path class="cls-5" d="M94.36,137.89a13.27,13.27,0,0,0,1.12.82c0,.27,0,.58,0,1a14.25,14.25,0,0,1-1.67-1.15c-.38-.32-.67-.59-.94-.82a4,4,0,0,0-1.1-.83V136a4,4,0,0,1,1.68,1.1c.25.24.54.49.9.78"/><path class="cls-5" d="M91.78,219.62V291l-.86-.6V194.92l.86.63Z"/><polygon class="cls-5" points="91.78 194.3 91.78 195.55 90.92 194.91 90.92 193.66 91.78 194.3"/><polygon class="cls-7" points="91.78 184.23 91.78 194.29 90.92 193.66 90.92 184.23 91.78 184.23"/><rect class="cls-5" x="90.92" y="183.19" width="0.86" height="1.04"/><path class="cls-5" d="M91.78,142v41.22h-.86V140.8l.3.41c.16.22.34.48.56.76"/><path class="cls-4" d="M91.78,136.92v3.6a4.32,4.32,0,0,0-.86-1V136.7l.44.09.42.13"/><path class="cls-5" d="M91.78,128.85V136a1.41,1.41,0,0,0-.22-.06,6.06,6.06,0,0,0-.64-.12v-3.6a4.51,4.51,0,0,0,.67-3.38Z"/><path class="cls-5" d="M91.36,136.79a3.12,3.12,0,0,0-.44-.09v-.87a6.06,6.06,0,0,1,.64.12l.22.06v.91l-.42-.13"/><path class="cls-5" d="M91.22,141.21c-.11-.16-.22-.29-.3-.41v-1.24a4.17,4.17,0,0,1,.86,1V142c-.22-.28-.4-.54-.56-.76"/><path class="cls-5" d="M90.72,128.87l.87,0a4.51,4.51,0,0,1-.67,3.38v-2.5h-.13a5.07,5.07,0,0,0-.07-.86"/><path class="cls-15" d="M90.92,194.92v95.49a38.48,38.48,0,0,0-5.06-3V192.74H88Z"/><polygon class="cls-7" points="90.92 184.23 90.92 193.66 88.91 192.19 88.91 184.23 90.92 184.23"/><path class="cls-15" d="M90.92,132.23v3.6a6.74,6.74,0,0,0-5.06,1.84v-5.38a2.82,2.82,0,0,0,.64.6,3.34,3.34,0,0,0,1.8.5,3.52,3.52,0,0,0,2.22-.75,1.94,1.94,0,0,0,.4-.41"/><path class="cls-14" d="M90.79,129.73l-4.93.14c0-.27-.08-.56-.1-.85l5-.15a5,5,0,0,1,.07.86"/><path class="cls-5" d="M85.86,137.67a6.74,6.74,0,0,1,5.06-1.84v.87a6.2,6.2,0,0,0-5.06,2.19Z"/><path class="cls-15" d="M88,183.19v9.56H85.86v-49a13.94,13.94,0,0,0,1-1.2c.91-1.15,2-2.58,3.1-2.44.36,0,.59.25.94.71v42.4Z"/><path class="cls-14" d="M85.86,129.87l4.93-.14A2.78,2.78,0,0,1,90,132a2.72,2.72,0,0,1-3,.2,3.17,3.17,0,0,1-1.13-2.3"/><polygon class="cls-5" points="87.95 192.74 87.95 183.19 90.92 183.19 90.92 184.23 88.9 184.23 88.9 192.18 90.92 193.66 90.92 194.91 87.95 192.74"/><path class="cls-5" d="M89.91,116.68c-1.35.7-1.47,4.35-.25,7.24a7.17,7.17,0,0,0,.68,1.22,5.14,5.14,0,0,1,.76,1.55,12.08,12.08,0,0,1,.49,2.17h-.87a10.82,10.82,0,0,0-.43-1.91,4.22,4.22,0,0,0-.67-1.34,8.23,8.23,0,0,1-.75-1.36,12.17,12.17,0,0,1-.83-3.13c-.3-2.32.12-4.51,1.47-5.21a3.47,3.47,0,0,1,2.41,0,4.51,4.51,0,0,1,2.57,2.65,6.86,6.86,0,0,1,.29,3.88c-.09.85-.19,1.91-.26,3.33-.14,3,.1,3.51.43,3.84a2.75,2.75,0,0,0,2,.76c-.1.28-.2.57-.28.85a3.47,3.47,0,0,1-2.35-1,2.42,2.42,0,0,1-.63-1.52,17,17,0,0,1,0-3c.06-1.44.16-2.51.25-3.36.16-1.67.24-2.42-.22-3.46a3.82,3.82,0,0,0-2-2.19,2.64,2.64,0,0,0-1.74,0"/><path class="cls-14" d="M88,121.13a11.27,11.27,0,0,0,.84,3.12,7.45,7.45,0,0,0,.74,1.37,4,4,0,0,1,.66,1.34,9.85,9.85,0,0,1,.44,1.92l-5,.14a35.83,35.83,0,0,1,0-3.61c0-1,.1-1.74.15-2.36a8,8,0,0,0,0-1.64Z"/><path class="cls-5" d="M87,132.17a2.7,2.7,0,0,0,3-.2,2.75,2.75,0,0,0,.81-2.24h.13v2.5a3,3,0,0,1-.39.42,3.56,3.56,0,0,1-2.23.74,3.3,3.3,0,0,1-1.79-.5,2.66,2.66,0,0,1-.65-.6v-2.42a3.17,3.17,0,0,0,1.13,2.3"/><path class="cls-5" d="M90,140.08c-1.07-.14-2.19,1.29-3.1,2.44a12.36,12.36,0,0,1-1,1.2v-1.29l.35-.45c1-1.32,2.33-3,3.88-2.75a1.82,1.82,0,0,1,.83.33v1.24c-.35-.47-.58-.67-.94-.72"/><path class="cls-4" d="M90.1,139.23c-1.56-.21-2.85,1.43-3.89,2.75l-.35.45v-3.54a6.19,6.19,0,0,1,5.06-2.19v2.86a1.82,1.82,0,0,0-.82-.33"/><path class="cls-5" d="M85.86,192.74v94.69c-.29-.14-.57-.27-.86-.39V144.27a1.81,1.81,0,0,0,.86-.56Z"/><path class="cls-5" d="M85,143.35a5.67,5.67,0,0,0,.86-.92v1.29a1.81,1.81,0,0,1-.86.55Z"/><path class="cls-5" d="M85.86,132.29v5.38a6.84,6.84,0,0,0-.86.92V130a5,5,0,0,0,.86,2.25"/><path class="cls-5" d="M85,130v-1h.77c0,.29,0,.59.09.85v2.42A4.81,4.81,0,0,1,85,130"/><path class="cls-5" d="M85.86,138.89a5.12,5.12,0,0,0-.86,1.4v-1.7a6.84,6.84,0,0,1,.86-.92Z"/><path class="cls-4" d="M85,143.35v-3.06a5.28,5.28,0,0,1,.86-1.4v3.54a5.67,5.67,0,0,1-.86.92"/><path class="cls-4" d="M85,140.29v3.06a.34.34,0,0,1-.18.08,3.59,3.59,0,0,1,0-2.76,2.46,2.46,0,0,1,.14-.38"/><path class="cls-5" d="M84.5,144.22c-1-.39-.9-2.47-.47-3.82a6.33,6.33,0,0,1,1-1.81v1.7a2.46,2.46,0,0,0-.14.38,3.64,3.64,0,0,0,0,2.76.34.34,0,0,0,.18-.08v.92a.88.88,0,0,1-.5-.05"/><path class="cls-14" d="M89.51,115.92c-1.35.7-1.77,2.89-1.47,5.21l-2.09.28a1.09,1.09,0,0,0-.52-.87,1.33,1.33,0,0,0-.7-.18,2.19,2.19,0,0,0-.68.11,4.59,4.59,0,0,0-2.63,2.34,3.59,3.59,0,0,0-.16,2.29,8.15,8.15,0,0,1,.13,2.23c-.17,1.76-.84,3.75-1.63,3.9s-2.34-1.8-3-3.68-.51-3.8-.2-6a22.26,22.26,0,0,1,2.16-7.76c.08-.18.18-.35.26-.51.5-.92.88-1.64.45-2.15-.76-.91-3.35.45-4.83,1.33-3.77,2.26-5.72,5.55-7.14,7.94-1.15,1.94-2,3.35-3.15,3.3s-2.31-1.74-2.68-2.79c-1.07-3,1.45-7.14,4.36-9.5a15.82,15.82,0,0,1,4.9-2.57c2-.72,3.65-1.35,4.55-3.41.29-.66.88-2.32,0-3.39-.57-.74-1.74-1.09-5.68-.38a44.61,44.61,0,0,0-5,1.21c-1.85.54-2.79.82-4,.35s-2.65-1.72-2.57-2.75c.13-1.76,4.62-4.07,9.22-4.09a18.35,18.35,0,0,1,2.85.22c1.72.21,3.2.4,4.64-.64.77-.57,2.12-2,1.68-3.12s-1.78-1-3.53-1c-2,0-5,0-7.37-1.69-1.53-1.07-2.91-2.78-2.58-3.79.2-.63,1.18-1.4,4.65-1.58a10.53,10.53,0,0,1,6,1.27,11.68,11.68,0,0,1,1.47,1,5.53,5.53,0,0,0,2.85,1.42,3.24,3.24,0,0,0,2.77-.56c.81-.8.63-2,.35-3.77-.4-2.6-.73-4.65-2.3-6.46-.24-.29-.47-.52-.69-.74-.43-.41-.68-.68-.64-.86.08-.34.81-.76,1.53-.76h0c2.19,0,4.37,4.15,5.3,6.94a22.81,22.81,0,0,1,.73,2.91c.29,1.48.51,2.56,1.64,3.24a4.11,4.11,0,0,0,3.94,0,4.21,4.21,0,0,0,1.88-2.7,11.13,11.13,0,0,1,.81-2c2.25-4.15,7.19-5.3,8.15-5.48,2.61-.51,5-.08,5.09.35.06.17-.87.85-1.69,1.46s-1.92,1.43-3.31,2.59c-3.86,3.19-4.57,4.55-4.54,5.93A2.73,2.73,0,0,0,98.4,91c.76.36,1.46,0,2.26-.46.37-.2.78-.42,1.27-.63a10.48,10.48,0,0,1,6.54-.29c1.45.32,2.92.66,3.44,1.83a2.36,2.36,0,0,1-.25,2.38c-.43.46-1,.42-3,.24-.88-.09-2-.19-3.41-.27a20.7,20.7,0,0,0-5.71.46,4.55,4.55,0,0,0-2.89,1.59c-.44.62-1.09,2-.43,2.92.51.68,1.34.58,2.85.37.81-.11,1.81-.23,3.11-.31a14,14,0,0,1,4.06.11,12,12,0,0,1,4.76,2.44,4.15,4.15,0,0,1,.66.6c.37.36,1.05,1.07,2.7,2.66l.25.24c1.53,1.46,2.09,2,2.26,2.92a2.83,2.83,0,0,1-.37,2.1,2.59,2.59,0,0,1-1.48,1c-.74.14-1.24-.29-2.3-1.29a20.48,20.48,0,0,0-3-2.39c-2-1.25-3.61-1.72-6.59-2.57-2.17-.63-3.15-.83-3.46-.21s.05.8,2.52,2.88l.33.27c3,2.53,3.48,2.94,4,3.64a4.75,4.75,0,0,1,.67,1.26,9.17,9.17,0,0,0,1,1.91,17.73,17.73,0,0,0,1.47,2l0,0a18.42,18.42,0,0,0-5.33,3.13c-.08-.25-.13-.49-.19-.74a8.32,8.32,0,0,0-1.31-3.07,7.24,7.24,0,0,0-4-3.13c-.81-.24-1.38-.21-1.72.09-.53.49-.31,1.25,0,2.4.16.56.35,1.19.51,2a29.45,29.45,0,0,1,.31,3.45c.08,1.21.08,1.75.08,2.56,0,.63,0,1.42,0,2.8,0,.56,0,1.05,0,1.47v0A24.4,24.4,0,0,0,97,130.34h0a2.75,2.75,0,0,1-2-.76c-.33-.33-.57-.83-.43-3.84.07-1.42.17-2.48.25-3.33.18-1.75.27-2.64-.28-3.88a4.48,4.48,0,0,0-2.57-2.65,3.46,3.46,0,0,0-2.41,0"/><path class="cls-5" d="M90.79,88.38a4.09,4.09,0,0,1-3.93,0c-1.14-.67-1.36-1.76-1.65-3.24a22.81,22.81,0,0,0-.73-2.91c-.93-2.78-3.1-6.92-5.3-6.94h0c-.72,0-1.45.42-1.53.76,0,.18.22.45.64.86.21.22.46.45.69.74,1.57,1.81,1.89,3.86,2.3,6.46.28,1.79.46,3-.34,3.78a3.3,3.3,0,0,1-2.78.55A5.46,5.46,0,0,1,75.28,87a11.68,11.68,0,0,0-1.47-1,10.53,10.53,0,0,0-6-1.27c-3.47.18-4.45,1-4.65,1.58-.32,1,1,2.72,2.57,3.79,2.43,1.69,5.33,1.69,7.38,1.69,1.75,0,3.15,0,3.53,1s-.91,2.55-1.69,3.12c-1.42,1-2.91.85-4.62.64a18.59,18.59,0,0,0-2.86-.22c-4.6,0-9.09,2.33-9.23,4.09-.07,1,1.28,2.25,2.58,2.75s2.15.19,4-.35a44.61,44.61,0,0,1,5-1.21c3.94-.71,5.11-.36,5.69.38.81,1.07.23,2.73-.06,3.39-.9,2.06-2.59,2.68-4.55,3.41a15.71,15.71,0,0,0-4.9,2.57c-2.91,2.36-5.42,6.49-4.36,9.5.37,1,1.43,2.74,2.68,2.79s2-1.36,3.15-3.3c1.42-2.39,3.37-5.68,7.14-7.94,1.48-.88,4.07-2.24,4.83-1.33.43.51,0,1.23-.45,2.15-.08.16-.18.33-.26.51a22.48,22.48,0,0,0-2.16,7.76c-.31,2.24-.56,4,.2,6s2.11,3.83,3,3.68,1.46-2.14,1.63-3.9a8.64,8.64,0,0,0-.12-2.23,3.46,3.46,0,0,1,.15-2.29,4.59,4.59,0,0,1,2.63-2.34,2.2,2.2,0,0,1,.69-.11,1.29,1.29,0,0,1,.69.18,1.12,1.12,0,0,1,.53.87,8.89,8.89,0,0,1-.06,1.64c-.05.62-.12,1.4-.15,2.36,0,1.28-.07,2.53,0,3.61L85,129v1a26.68,26.68,0,0,1-.11-4.65c0-1,.1-1.78.15-2.42.08-.92.14-1.58-.05-1.7a1,1,0,0,0-.69,0,3.73,3.73,0,0,0-2.1,1.87,2.83,2.83,0,0,0-.09,1.8,8.85,8.85,0,0,1,.13,2.46c0,.18-.43,4.29-2.32,4.65-1.65.32-3.33-2.42-4-4.22-.82-2.23-.56-4.19-.24-6.45a23.55,23.55,0,0,1,2.24-8l.28-.53a4.25,4.25,0,0,0,.52-1.22A9.12,9.12,0,0,0,75,113.15c-3.57,2.16-5.38,5.2-6.84,7.64-1.26,2.12-2.26,3.8-3.92,3.72-1.83-.07-3.06-2.23-3.46-3.35-1.21-3.43,1.42-7.85,4.63-10.47a17.08,17.08,0,0,1,5.14-2.7c1.85-.68,3.31-1.22,4.06-2.94.36-.84.61-2,.16-2.53-.27-.34-1.06-.74-4.85,0A45.6,45.6,0,0,0,65,103.65c-1.91.56-3.06.9-4.54.33-1.63-.62-3.23-2.15-3.13-3.62.2-2.67,5.66-4.86,10.07-4.88a22.89,22.89,0,0,1,3,.22c1.65.21,2.85.37,4-.47.83-.6,1.59-1.62,1.4-2.14s-1.35-.47-2.73-.47c-2.19,0-5.22,0-7.86-1.85-1.26-.88-3.48-3-2.91-4.76.63-1.92,4.25-2.1,5.44-2.16a11.21,11.21,0,0,1,6.48,1.38,10.33,10.33,0,0,1,1.57,1.12,4.76,4.76,0,0,0,2.45,1.23c.44.07,1.5.22,2-.32s.36-1.36.1-3c-.4-2.56-.69-4.4-2.09-6-.23-.27-.46-.49-.66-.69-.54-.54-1-1-.86-1.65.19-.88,1.42-1.46,2.39-1.44,1.42,0,2.72,1.19,3.78,2.73A19.68,19.68,0,0,1,85.29,82a22.4,22.4,0,0,1,.76,3c.27,1.41.43,2.19,1.25,2.68a3.26,3.26,0,0,0,3.08,0c.86-.46,1.1-1.17,1.47-2.23a12.69,12.69,0,0,1,.88-2.1c2.43-4.48,7.71-5.71,8.74-5.91,1.93-.38,5.7-.49,6.09,1,.2.73-.44,1.22-2,2.37-.8.61-1.91,1.42-3.28,2.57-3.58,3-4.26,4.15-4.24,5.24a2,2,0,0,0,.74,1.71c.35.16.73,0,1.49-.43a13,13,0,0,1,1.35-.68,11.55,11.55,0,0,1,7.06-.35c1.56.36,3.34.77,4,2.33a3.17,3.17,0,0,1-.41,3.32c-.74.79-1.64.69-3.65.5-.87-.07-2-.18-3.37-.25a18.66,18.66,0,0,0-5.47.43,3.68,3.68,0,0,0-2.39,1.25C97,97,96.68,97.9,97,98.28s.81.19,2,0c.83-.1,1.85-.24,3.18-.32a14.82,14.82,0,0,1,4.29.13,12.62,12.62,0,0,1,5.1,2.6,4.07,4.07,0,0,1,.75.67c.37.37,1.05,1.07,2.69,2.65l.25.24c1.62,1.56,2.29,2.19,2.51,3.39a5.32,5.32,0,0,1,.06.78,3.34,3.34,0,0,1-2.6,3.34c-1.21.23-2-.5-3-1.51a19,19,0,0,0-2.85-2.28c-1.85-1.19-3.45-1.64-6.36-2.48-.51-.14-1.53-.43-2.14-.52.36.36,1.07.93,2,1.7l.34.28c3.11,2.6,3.57,3,4.13,3.8a5.33,5.33,0,0,1,.77,1.46,8.5,8.5,0,0,0,.88,1.74,16.91,16.91,0,0,0,1.41,2,2.92,2.92,0,0,1,.23.29c-.27.09-.56.18-.85.3l0,0a20.37,20.37,0,0,1-1.48-2,10.1,10.1,0,0,1-1-1.91,4.75,4.75,0,0,0-.67-1.26c-.49-.69-.94-1.11-4-3.64l-.33-.27c-2.47-2.08-2.79-2.34-2.52-2.88s1.29-.42,3.46.21a22.23,22.23,0,0,1,6.58,2.57,19.43,19.43,0,0,1,3,2.39c1.07,1,1.57,1.43,2.31,1.29a2.59,2.59,0,0,0,1.48-1,2.88,2.88,0,0,0,.38-2.1c-.18-.92-.74-1.46-2.27-2.92l-.25-.24c-1.65-1.59-2.33-2.3-2.7-2.66a3.76,3.76,0,0,0-.66-.6A12,12,0,0,0,106.29,99a13.94,13.94,0,0,0-4.06-.11c-1.3.08-2.31.2-3.11.31-1.51.21-2.34.31-2.85-.37-.66-.89,0-2.3.43-2.92a4.52,4.52,0,0,1,2.89-1.59,20.7,20.7,0,0,1,5.71-.46c1.44.08,2.52.18,3.41.27,1.94.18,2.52.22,3-.24a2.36,2.36,0,0,0,.25-2.38c-.52-1.17-2-1.51-3.44-1.83a10.48,10.48,0,0,0-6.54.29c-.49.21-.9.43-1.27.63-.8.45-1.5.82-2.26.46a2.76,2.76,0,0,1-1.23-2.46c0-1.38.69-2.74,4.55-5.93,1.39-1.16,2.51-2,3.31-2.59s1.75-1.29,1.69-1.46c-.1-.43-2.49-.86-5.09-.35-1,.18-5.9,1.33-8.15,5.48a12.44,12.44,0,0,0-.82,2,4.12,4.12,0,0,1-1.87,2.7"/><path class="cls-2" d="M263.74,12.11V260.38L138.21,309.06,10.33,260.31V12.11Zm-10.3,240.16V24.18H20.63v228L138.12,297Z"/><path class="cls-16" d="M138.22,309.06,10.33,260.31V12.11H263.74V260.38Z"/><polygon class="cls-17" points="138.12 296.99 20.63 252.2 20.63 24.18 253.44 24.18 253.44 252.27 138.12 296.99"/><path class="cls-2" d="M32.16,247.34l39.2,14.11V245.39L45,235.75V31.7H32.16Z"/><path class="cls-3" d="M72.44,263,31.08,248.1V30.61h15V235l26.37,9.63Zm-39.2-16.41,37,13.33V246.15L43.9,236.51V32.78H33.24Z"/><polygon class="cls-2" points="197.5 66.07 197.5 261.97 211.72 257.07 211.72 124.45 211.87 124.34 241.91 101.56 241.91 31.17 196.91 31.17 196.91 47.72 227.05 47.72 227.05 90.59 212.36 104.06 212.36 66.07 197.5 66.07"/><path class="cls-3" d="M196.42,263.49V65h17V101.6L226,90.12V48.8H195.82V30.09H243v72L212.81,125V257.85Zm2.16-196.33V260.45l12.06-4.15V123.91L240.83,101V32.26H198V46.63h30.14V91.07l-16.85,15.45V67.16Z"/><path class="cls-3" d="M53.8,24.35H67.49L80.2,12.28H65.8Z"/><path class="cls-3" d="M71.53,24.35H85.21L97.93,12.28H83.52Z"/><g class="cls-18"><g class="cls-18"><path class="cls-11" d="M199.86,165.22v.13a3.36,3.36,0,0,1-1.08,2.46,3.16,3.16,0,0,1-2.13.85h-.21a3.25,3.25,0,0,1-2.94-3.26v-.14h.06l0,.08.24.12.11-.2,5.62,0,.08.19.27-.1,0-.09Zm-.29.28-5.77,0a2.84,2.84,0,0,0,4.79,2.07,3.08,3.08,0,0,0,1-2.11"/><polygon class="cls-11" points="199.82 165.22 199.85 165.31 199.58 165.41 199.5 165.22 199.82 165.22"/><polygon class="cls-11" points="197.09 158.39 199.82 165.22 199.5 165.22 196.94 158.78 197.07 158.49 196.95 158.43 197.09 158.43 197.09 158.39"/><path class="cls-11" d="M193.8,165.54l5.76,0a3,3,0,0,1-1,2.1,2.84,2.84,0,0,1-4.79-2.07"/><polygon class="cls-11" points="196.94 158.78 199.5 165.22 193.88 165.26 196.94 158.78"/><polygon class="cls-11" points="192.05 145.21 197.74 153.69 197.63 153.78 197.63 153.64 197.37 153.64 191.93 145.54 192.05 145.37 191.93 145.29 192.05 145.21"/><polygon class="cls-11" points="197.63 153.78 197.63 153.92 197.05 153.92 197.05 153.78 196.77 153.78 196.77 153.91 187.05 153.86 187.05 153.74 186.77 153.74 186.77 153.84 186.24 153.84 186.24 153.71 186.35 153.79 186.5 153.56 197.37 153.64 197.52 153.86 197.63 153.78"/><polygon class="cls-11" points="197.63 153.64 197.63 153.78 197.52 153.86 197.37 153.64 197.63 153.64"/><polygon class="cls-11" points="191.93 145.54 197.37 153.64 186.5 153.56 191.93 145.54"/><polygon class="cls-11" points="197.09 158.39 197.07 158.37 196.95 158.43 196.92 158.43 196.81 158.37 196.8 158.39 196.77 153.91 197.05 153.92 197.09 158.39"/><polygon class="cls-11" points="197.07 158.37 197.09 158.4 197.09 158.43 196.95 158.43 197.07 158.37"/><polygon class="cls-11" points="197.07 158.49 196.94 158.78 196.81 158.47 196.93 158.43 196.95 158.43 197.07 158.49"/><polygon class="cls-11" points="197.05 153.78 197.05 153.92 196.77 153.91 196.77 153.78 197.05 153.78"/><polygon class="cls-11" points="196.81 158.47 196.94 158.78 193.88 165.25 193.56 165.25 196.8 158.39 196.8 158.43 196.93 158.43 196.81 158.47"/><polygon class="cls-11" points="196.81 158.37 196.93 158.43 196.8 158.43 196.8 158.4 196.81 158.37"/><polygon class="cls-11" points="193.88 165.25 193.78 165.46 193.52 165.34 193.56 165.25 193.88 165.25"/><polygon class="cls-11" points="192.05 145.37 191.93 145.54 191.82 145.37 191.93 145.29 192.05 145.37"/><polygon class="cls-11" points="191.82 145.37 191.93 145.54 186.49 153.56 186.23 153.56 186.23 153.7 186.12 153.63 191.82 145.21 191.93 145.29 191.82 145.37"/><path class="cls-11" d="M190.08,165.22v.13a3.35,3.35,0,0,1-1.07,2.46,3.19,3.19,0,0,1-2.14.85h-.22a3.25,3.25,0,0,1-2.92-3.26v-.14h.05l0,.08.26.11.08-.19,5.66,0,.07.19.26-.1,0-.09Zm-.29.28-5.78,0a3,3,0,0,0,2.67,2.84,2.87,2.87,0,0,0,2.14-.79,3,3,0,0,0,1-2.09"/><polygon class="cls-11" points="190.03 165.22 190.06 165.31 189.8 165.41 189.73 165.22 190.03 165.22"/><polygon class="cls-11" points="187.05 157.37 190.03 165.22 189.74 165.22 186.9 157.79 187.04 157.43 186.9 157.38 186.91 157.37 187.05 157.37"/><path class="cls-11" d="M184,165.54l5.78,0a3.09,3.09,0,0,1-1,2.09,2.86,2.86,0,0,1-2.14.78,3,3,0,0,1-2.67-2.84"/><polygon class="cls-11" points="189.74 165.22 184.08 165.25 186.91 157.79 189.74 165.22"/><polygon class="cls-11" points="187.05 157.36 187.05 157.37 186.91 157.37 187.04 157.33 187.05 157.36"/><polygon class="cls-11" points="187.05 153.85 187.05 157.36 187.04 157.33 186.91 157.37 186.89 157.37 186.77 157.33 186.77 153.84 187.05 153.85"/><polygon class="cls-11" points="187.05 153.74 187.05 153.85 186.77 153.84 186.77 153.74 187.05 153.74"/><polygon class="cls-11" points="187.04 157.43 186.9 157.79 186.77 157.43 186.9 157.38 187.04 157.43"/><polygon class="cls-11" points="186.89 157.37 186.91 157.38 186.77 157.43 186.91 157.79 184.08 165.25 183.78 165.25 186.77 157.33 186.77 157.37 186.89 157.37"/><polygon class="cls-11" points="186.89 157.37 186.77 157.37 186.77 157.33 186.89 157.37"/><polygon class="cls-11" points="186.49 153.56 186.34 153.79 186.23 153.71 186.23 153.56 186.49 153.56"/><polygon class="cls-11" points="184.08 165.25 184 165.45 183.74 165.35 183.78 165.25 184.08 165.25"/></g></g><polygon class="cls-19" points="197.63 153.78 197.63 153.92 197.05 153.92 196.77 153.91 187.05 153.86 186.77 153.84 186.24 153.84 186.24 153.71 186.24 153.56 186.5 153.56 197.37 153.64 197.63 153.64 197.63 153.78"/><polygon class="cls-19" points="186.49 153.56 186.34 153.79 186.23 153.71 186.12 153.63 191.82 145.21 191.93 145.29 192.04 145.37 191.93 145.54 186.49 153.56"/><polygon class="cls-19" points="197.63 153.78 197.52 153.86 197.37 153.64 191.93 145.54 191.82 145.37 191.93 145.29 192.04 145.21 197.74 153.69 197.63 153.78"/><polyline class="cls-19" points="187.05 157.37 186.91 157.37 186.89 157.37 186.77 157.37 186.77 157.33 186.77 153.84 186.77 153.74 187.05 153.74 187.05 153.85 187.05 157.36"/><path class="cls-19" d="M190,165.22h.05v.14a3.34,3.34,0,0,1-1.07,2.45,3.22,3.22,0,0,1-2.14.86h-.22a3.26,3.26,0,0,1-2.92-3.27v-.15h.36l5.64,0Z"/><path class="cls-19" d="M184,165.54a3,3,0,0,0,2.67,2.84,2.86,2.86,0,0,0,2.14-.78,3.09,3.09,0,0,0,1-2.09Z"/><path class="cls-19" d="M199.82,165.22h0v.14a3.39,3.39,0,0,1-1.08,2.45,3.15,3.15,0,0,1-2.12.86h-.22a3.27,3.27,0,0,1-2.94-3.27v-.15h.38l5.62,0Z"/><path class="cls-19" d="M193.8,165.54a2.84,2.84,0,0,0,4.79,2.07,3,3,0,0,0,1-2.1Z"/><polyline class="cls-19" points="196.93 158.43 196.8 158.43 196.8 158.4 196.76 153.91 196.76 153.78 197.05 153.78 197.05 153.92 197.09 158.4 197.09 158.43 196.95 158.43"/><polyline class="cls-19" points="196.95 158.43 197.07 158.48 196.94 158.78 193.88 165.25 193.78 165.46 193.53 165.33 193.56 165.25 196.8 158.4 196.81 158.37 196.92 158.43"/><polygon class="cls-19" points="199.82 165.22 199.85 165.31 199.58 165.41 199.5 165.22 196.94 158.78 196.81 158.48 196.92 158.43 196.95 158.43 197.07 158.37 197.09 158.4 199.82 165.22"/><polygon class="cls-19" points="190.03 165.22 190.06 165.31 189.8 165.41 189.73 165.22 186.9 157.79 186.77 157.43 186.9 157.38 186.92 157.37 187.04 157.32 187.05 157.36 187.05 157.37 190.03 165.22"/><polygon class="cls-19" points="184.08 165.25 184 165.45 183.74 165.35 183.78 165.25 186.77 157.32 186.89 157.37 186.91 157.38 187.04 157.43 186.91 157.79 184.08 165.25"/><g class="cls-20"><g class="cls-20"><path class="cls-11" d="M193.29,140l0,.23-1.17,0h-.42l-1.21,0,0-.25a1.37,1.37,0,0,1,2.72,0m-2.25-.15,1.77,0a1,1,0,0,0-.88-.58h0a1,1,0,0,0-.85.61"/><path class="cls-11" d="M192.81,139.82l-1.77,0a1,1,0,0,1,.85-.61h0a1,1,0,0,1,.88.58"/><rect class="cls-11" x="191.74" y="140.25" width="0.42" height="5.03"/><polygon class="cls-11" points="192.16 140.25 191.74 140.25 191.74 140.25 192.16 140.25"/></g></g></g></g></svg>